<svg version="1.1" xmlns="http://www.w3.org/2000/svg" xmlns:xlink="http://www.w3.org/1999/xlink" width="181.98979" height="62.38577" viewBox="0,0,181.98979,62.38577"><g transform="translate(-229.0051,-148.80712)"><g data-paper-data="{&quot;isPaintingLayer&quot;:true}" fill-rule="nonzero" stroke="none" stroke-linecap="butt" stroke-linejoin="miter" stroke-miterlimit="10" stroke-dasharray="" stroke-dashoffset="0" style="mix-blend-mode: normal"><path d="M234.0051,163.68751h176.98979v37.94715c0,5.27887 -4.27934,9.55823 -9.55823,9.55823h-157.87333c-5.27887,0 -9.55823,-4.27936 -9.55823,-9.55823z" data-paper-data="{&quot;index&quot;:null}" fill="#ffffff" stroke-width="0"/><path d="M234.0051,163.36535c0,-5.27887 4.27936,-9.55823 9.55823,-9.55823h157.87333c5.27889,0 9.55823,4.27936 9.55823,9.55823v37.94715h-176.98979z" fill="#ffffff" stroke-width="0"/><path d="M229.0051,158.68751h176.98979v37.94715c0,5.27887 -4.27934,9.55823 -9.55823,9.55823h-157.87333c-5.27887,0 -9.55823,-4.27936 -9.55823,-9.55823z" data-paper-data="{&quot;index&quot;:null}" fill="#000000" stroke-width="0"/><path d="M229.0051,158.36535c0,-5.27887 4.27936,-9.55823 9.55823,-9.55823h157.87333c5.27889,0 9.55823,4.27936 9.55823,9.55823v37.94715h-176.98979z" fill="#000000" stroke-width="0"/><text transform="translate(238.30601,186.05965) scale(0.69043,0.69043)" font-size="40" xml:space="preserve" fill="#ffffff" fill-rule="nonzero" stroke="none" stroke-width="1" stroke-linecap="butt" stroke-linejoin="miter" stroke-miterlimit="10" stroke-dasharray="" stroke-dashoffset="0" font-family="Sans Serif" font-weight="normal" text-anchor="start" style="mix-blend-mode: normal"><tspan x="0" dy="0">Leave game</tspan></text></g></g></svg>