<svg version="1.1" xmlns="http://www.w3.org/2000/svg" xmlns:xlink="http://www.w3.org/1999/xlink" width="150.6414" height="403.98518" viewBox="0,0,150.6414,403.98518"><defs><linearGradient x1="320.06635" y1="34.73432" x2="320.06635" y2="304.62254" gradientUnits="userSpaceOnUse" id="color-1"><stop offset="0" stop-color="#000000" stop-opacity="0.18431"/><stop offset="1" stop-color="#000000" stop-opacity="0"/></linearGradient></defs><g transform="translate(-244.4892,15.38773)"><g data-paper-data="{&quot;isPaintingLayer&quot;:true}" fill-rule="nonzero" stroke-linecap="butt" stroke-linejoin="miter" stroke-miterlimit="10" stroke-dasharray="" stroke-dashoffset="0" style="mix-blend-mode: normal"><path d="M247.48921,385.59745v-397.98518c0,0 115.84355,0 127.65149,0c1.68079,0 10.54966,0.49322 13.88521,6.7865c3.2801,6.18867 3.1047,10.06923 3.1047,11.60918c0,16.44407 -144.64139,379.5895 -144.64139,379.5895z" fill="#828282" stroke="#828282" stroke-width="6"/><path d="M362.16735,21.39089l30.34351,-13.2157c0,0 0,339.51807 0,353.06915c0,1.53996 -0.20486,11.37793 -3.48496,17.5666c-3.33555,6.29329 -12.20441,6.78651 -13.88521,6.78651c-11.80793,0 -127.65149,0 -127.65149,0v-397.98518h128.90697z" data-paper-data="{&quot;index&quot;:null}" fill="#c7c7c7" stroke="#828282" stroke-width="5"/><path d="M247.48921,385.59745v-397.98518c0,0 115.84355,0 127.65149,0c1.68079,0 10.54966,0.49322 13.88521,6.7865c3.2801,6.18867 3.48496,16.02665 3.48496,17.5666c0,16.44407 -145.02165,373.63208 -145.02165,373.63208z" fill="#333333" stroke="none" stroke-width="0"/><path d="M362.16735,21.39089l30.34351,-13.2157c0,0 0,339.51807 0,353.06915c0,1.53996 -0.20486,11.37793 -3.48496,17.5666c-3.33555,6.29329 -12.20441,6.78651 -13.88521,6.78651c-11.80793,0 -127.65149,0 -127.65149,0v-397.98518h128.90697z" data-paper-data="{&quot;index&quot;:null}" fill="#333333" stroke="none" stroke-width="0"/><path d="M247.55072,364.92778v-377.28898c0,0 114.68661,-0.27269 130.35505,0.38604c3.28945,0.1383 8.40263,1.48187 11.06635,5.55962c2.66372,4.07775 3.27549,4.02976 3.36297,15.87936c0.48387,65.53847 0.24689,355.46397 0.24689,355.46397z" fill="url(#color-1)" stroke="none" stroke-width="0"/></g></g></svg>